<?xml version="1.0" encoding="utf-8"?>
<!-- Generator: Adobe Illustrator 24.0.0, SVG Export Plug-In . SVG Version: 6.00 Build 0)  -->
<svg version="1.1" id="Layer_1" xmlns="http://www.w3.org/2000/svg" xmlns:xlink="http://www.w3.org/1999/xlink" x="0px" y="0px"
	 viewBox="0 0 654 155" style="enable-background:new 0 0 654 155;" xml:space="preserve">
<style type="text/css">
	.st0{fill:#02562C;}
	.st1{fill:#39B54A;}
</style>
<g>
	<path class="st0" d="M51.7,25.7C23.2,25.7,0,49,0,77.5c0,3,0.3,5.8,0.7,8.7c1.1,6.2,3.2,12.1,6.3,17.3c9,15.4,25.7,25.7,44.7,25.7
		s35.7-10.4,44.7-25.7H74.2c-6,5.2-13.9,8.4-22.5,8.4s-16.5-3.2-22.5-8.4C24,99,20.2,93,18.4,86.1H85h17.7c0.5-2.8,0.7-5.7,0.7-8.7
		c0-3-0.3-5.8-0.7-8.7C98.6,44.4,77.3,25.7,51.7,25.7z M18.4,68.8C22.3,54,35.8,43.1,51.7,43.1S81.2,54,85,68.8H18.4z"/>
	<path class="st0" d="M172.5,25.7c-28.5,0-51.7,23.2-51.7,51.7s23.2,51.7,51.7,51.7c13.2,0,25.3-5,34.4-13.1v13.1h17.3V77.5
		c0-11.6-3.8-22.3-10.3-30.9C204.5,33.9,189.5,25.7,172.5,25.7z M172.5,111.9c-19,0-34.4-15.4-34.4-34.4s15.4-34.4,34.4-34.4
		s34.4,15.4,34.4,34.4S191.5,111.9,172.5,111.9z"/>
	<polygon class="st0" points="345.1,25.7 333.3,25.7 241.6,25.7 241.6,25.7 241.6,43.1 316,43.1 247.2,111.9 241.6,117.5 
		241.6,129.2 254.3,129.2 345.1,129.2 345.1,129.2 345.1,111.9 345.1,111.9 271.7,111.9 340.5,43.1 345.1,38.5 345.1,38.5 
		345.1,25.7 345.1,25.7 	"/>
	<path class="st0" d="M487.6,54.5c-3.5,6.9-5.4,14.8-5.4,23v51.7V155h17.3v-25.7h34.4h4.2V129v-17.4c-1.4,0.2-2.8,0.3-4.2,0.3h0
		h-34.4V77.5c0-19,15.4-34.4,34.4-34.4c1.4,0,2.8,0.1,4.2,0.3V25.9v-0.2h-4.2C513.7,25.7,496.1,37.5,487.6,54.5z"/>
	<path class="st0" d="M649.8,25.7h-34.4V0h-17.3v25.7v51.7c0,8.3,2,16.1,5.4,23c8.5,17,26.1,28.7,46.3,28.7h4.2V129v-17.4
		c-1.4,0.2-2.8,0.3-4.2,0.3c-19,0-34.4-15.4-34.4-34.4V43.1h34.4h0c1.4,0,2.8,0.1,4.2,0.3V25.9v-0.2H649.8z"/>
	<g>
		<path class="st1" d="M568.1,25.8c-4.8,0-8.7,3.9-8.7,8.7v0c0,4.8,3.9,8.7,8.7,8.7c4.8,0,8.7-3.9,8.7-8.7v0
			C576.8,29.6,572.9,25.8,568.1,25.8z"/>
		<rect x="559.4" y="60.4" class="st0" width="17.3" height="68.8"/>
	</g>
	<path class="st0" d="M447.6,38.4v33.3v11.6c-2.8,16.2-16.9,28.6-33.9,28.6c-17,0-31.2-12.4-33.9-28.6V71.7V38.4V25.7h-17.3v44.6
		v14.3c0.4,2.6,0.9,5,1.6,7.5c5.5,18.7,21.4,33.1,41,36.4V155h17.3v-26.5c19.9-3.4,36-18.2,41.3-37.4c0.6-2.1,1-4.3,1.3-6.5V70.3
		V25.7h-17.3V38.4z"/>
</g>
</svg>
